<mxfile host="app.diagrams.net" modified="2024-05-02T22:58:18.235Z" agent="Mozilla/5.0 (Windows NT 10.0; Win64; x64) AppleWebKit/537.36 (KHTML, like Gecko) Chrome/123.0.0.0 Safari/537.36 OPR/109.0.0.0" etag="f0kvsUKSV-fHrdS6bwbI" version="24.0.2" type="github">
  <diagram name="Page-1" id="5R03ZHuMA1EfANfO0-Cf">
    <mxGraphModel dx="1423" dy="750" grid="1" gridSize="10" guides="1" tooltips="1" connect="1" arrows="1" fold="1" page="1" pageScale="1" pageWidth="827" pageHeight="1169" math="0" shadow="0">
      <root>
        <mxCell id="0" />
        <mxCell id="1" parent="0" />
        <mxCell id="XTIZf9_XDLz32RFR3_ZM-14" value="reaction:hasOutcome" style="edgeStyle=orthogonalEdgeStyle;rounded=0;orthogonalLoop=1;jettySize=auto;html=1;entryX=0.5;entryY=1;entryDx=0;entryDy=0;" edge="1" parent="1" source="XTIZf9_XDLz32RFR3_ZM-3" target="XTIZf9_XDLz32RFR3_ZM-5">
          <mxGeometry relative="1" as="geometry" />
        </mxCell>
        <mxCell id="XTIZf9_XDLz32RFR3_ZM-17" value="rdfs:hasSubclass" style="edgeStyle=orthogonalEdgeStyle;rounded=0;orthogonalLoop=1;jettySize=auto;html=1;entryX=0;entryY=0.5;entryDx=0;entryDy=0;" edge="1" parent="1" source="XTIZf9_XDLz32RFR3_ZM-3" target="XTIZf9_XDLz32RFR3_ZM-16">
          <mxGeometry relative="1" as="geometry" />
        </mxCell>
        <mxCell id="XTIZf9_XDLz32RFR3_ZM-3" value="cbi:IllusoryTruthEffect" style="rounded=1;arcSize=10;whiteSpace=wrap;html=1;align=center;fillColor=#f0a30a;strokeColor=#BD7000;fontColor=#000000;" vertex="1" parent="1">
          <mxGeometry x="490" y="570" width="150" height="50" as="geometry" />
        </mxCell>
        <mxCell id="XTIZf9_XDLz32RFR3_ZM-9" value="cbi:receives" style="edgeStyle=orthogonalEdgeStyle;rounded=0;orthogonalLoop=1;jettySize=auto;html=1;entryX=0;entryY=0.5;entryDx=0;entryDy=0;" edge="1" parent="1" source="XTIZf9_XDLz32RFR3_ZM-4" target="XTIZf9_XDLz32RFR3_ZM-8">
          <mxGeometry relative="1" as="geometry" />
        </mxCell>
        <mxCell id="XTIZf9_XDLz32RFR3_ZM-10" value="cbi:affectedBy" style="edgeStyle=orthogonalEdgeStyle;rounded=0;orthogonalLoop=1;jettySize=auto;html=1;entryX=0.5;entryY=0;entryDx=0;entryDy=0;" edge="1" parent="1" source="XTIZf9_XDLz32RFR3_ZM-4" target="XTIZf9_XDLz32RFR3_ZM-7">
          <mxGeometry relative="1" as="geometry" />
        </mxCell>
        <mxCell id="XTIZf9_XDLz32RFR3_ZM-4" value="fs:People" style="rounded=1;arcSize=10;whiteSpace=wrap;html=1;align=center;fillColor=#f0a30a;strokeColor=#BD7000;fontColor=#000000;" vertex="1" parent="1">
          <mxGeometry x="150" y="290" width="150" height="50" as="geometry" />
        </mxCell>
        <mxCell id="XTIZf9_XDLz32RFR3_ZM-11" value="reaction:hasOutcome" style="edgeStyle=orthogonalEdgeStyle;rounded=0;orthogonalLoop=1;jettySize=auto;html=1;entryX=1;entryY=0.5;entryDx=0;entryDy=0;" edge="1" parent="1" source="XTIZf9_XDLz32RFR3_ZM-5" target="XTIZf9_XDLz32RFR3_ZM-7">
          <mxGeometry relative="1" as="geometry" />
        </mxCell>
        <mxCell id="XTIZf9_XDLz32RFR3_ZM-12" value="cbi:affects" style="edgeStyle=orthogonalEdgeStyle;rounded=0;orthogonalLoop=1;jettySize=auto;html=1;entryX=0.5;entryY=1;entryDx=0;entryDy=0;" edge="1" parent="1" source="XTIZf9_XDLz32RFR3_ZM-5" target="XTIZf9_XDLz32RFR3_ZM-8">
          <mxGeometry relative="1" as="geometry" />
        </mxCell>
        <mxCell id="XTIZf9_XDLz32RFR3_ZM-5" value="cbi:BeliefFormation" style="rounded=1;arcSize=10;whiteSpace=wrap;html=1;align=center;fillColor=#f0a30a;strokeColor=#BD7000;fontColor=#000000;" vertex="1" parent="1">
          <mxGeometry x="490" y="420" width="150" height="50" as="geometry" />
        </mxCell>
        <mxCell id="XTIZf9_XDLz32RFR3_ZM-15" value="cbi:disseminates" style="edgeStyle=orthogonalEdgeStyle;rounded=0;orthogonalLoop=1;jettySize=auto;html=1;exitX=0;exitY=0.5;exitDx=0;exitDy=0;entryX=1;entryY=0.5;entryDx=0;entryDy=0;" edge="1" parent="1" source="XTIZf9_XDLz32RFR3_ZM-6" target="XTIZf9_XDLz32RFR3_ZM-8">
          <mxGeometry relative="1" as="geometry" />
        </mxCell>
        <mxCell id="XTIZf9_XDLz32RFR3_ZM-6" value="cbi:Medium" style="rounded=1;arcSize=10;whiteSpace=wrap;html=1;align=center;fillColor=#f0a30a;strokeColor=#BD7000;fontColor=#000000;" vertex="1" parent="1">
          <mxGeometry x="770" y="290" width="150" height="50" as="geometry" />
        </mxCell>
        <mxCell id="XTIZf9_XDLz32RFR3_ZM-18" value="dbpedia-owl:uses" style="edgeStyle=orthogonalEdgeStyle;rounded=0;orthogonalLoop=1;jettySize=auto;html=1;entryX=1;entryY=0.5;entryDx=0;entryDy=0;" edge="1" parent="1" source="XTIZf9_XDLz32RFR3_ZM-7" target="XTIZf9_XDLz32RFR3_ZM-6">
          <mxGeometry relative="1" as="geometry">
            <Array as="points">
              <mxPoint x="225" y="660" />
              <mxPoint x="940" y="660" />
              <mxPoint x="940" y="315" />
            </Array>
          </mxGeometry>
        </mxCell>
        <mxCell id="XTIZf9_XDLz32RFR3_ZM-7" value="cbi:Repetition" style="rounded=1;arcSize=10;whiteSpace=wrap;html=1;align=center;fillColor=#f0a30a;strokeColor=#BD7000;fontColor=#000000;" vertex="1" parent="1">
          <mxGeometry x="150" y="420" width="150" height="50" as="geometry" />
        </mxCell>
        <mxCell id="XTIZf9_XDLz32RFR3_ZM-8" value="fs:Information" style="rounded=1;arcSize=10;whiteSpace=wrap;html=1;align=center;fillColor=#f0a30a;strokeColor=#BD7000;fontColor=#000000;" vertex="1" parent="1">
          <mxGeometry x="490" y="290" width="150" height="50" as="geometry" />
        </mxCell>
        <mxCell id="XTIZf9_XDLz32RFR3_ZM-16" value="cbi:CognitiveBias" style="rounded=1;arcSize=10;whiteSpace=wrap;html=1;align=center;fillColor=#f0a30a;strokeColor=#BD7000;fontColor=#000000;" vertex="1" parent="1">
          <mxGeometry x="770" y="420" width="150" height="50" as="geometry" />
        </mxCell>
      </root>
    </mxGraphModel>
  </diagram>
</mxfile>
